<svg width="12" height="16" viewBox="0 0 12 16" fill="none" xmlns="http://www.w3.org/2000/svg">
<path fill-rule="evenodd" clip-rule="evenodd" d="M9.07017 3.92253C8.40374 3.92253 7.86359 3.37921 7.86359 2.70909C7.86359 2.03876 8.40374 1.49554 9.07017 1.49554C9.73654 1.49554 10.2768 2.03876 10.2768 2.70909C10.2768 3.37921 9.73654 3.92253 9.07017 3.92253ZM9.07017 0.0685425C7.61678 0.0685425 6.43866 1.25338 6.43866 2.71517C6.43866 3.21364 6.57599 3.68005 6.81446 4.07803C6.86312 4.15946 6.91609 4.23794 6.97298 4.31328L7.14768 4.55702L9.07017 6.88856L11.1676 4.31297C11.5026 3.86888 11.7016 3.31539 11.7016 2.71517C11.7016 1.25338 10.5235 0.0685425 9.07017 0.0685425Z"/>
<path fill-rule="evenodd" clip-rule="evenodd" d="M10.0751 12.3648V7.92343H8.12572V10.0095L6.17753 7.65558L0.752869 14.2099L2.55737 15.7204L6.17753 11.3464L9.7976 15.7204L11.6021 14.2099L10.0751 12.3648Z" />
</svg>
