<svg width="12" height="12" viewBox="0 0 12 12" fill="none" xmlns="http://www.w3.org/2000/svg">
<path d="M5.45312 2.95769C5.45312 3.38751 5.3776 3.77972 5.22656 4.13432C5.07552 4.48892 4.875 4.79517 4.625 5.05306C4.375 5.30557 4.08333 5.50168 3.75 5.64137C3.42187 5.78106 3.07812 5.85091 2.71875 5.85091C2.32292 5.85091 1.95833 5.78106 1.625 5.64137C1.29688 5.50168 1.01042 5.30557 0.765625 5.05306C0.526042 4.79517 0.338542 4.48892 0.203125 4.13432C0.0677083 3.77972 0 3.38751 0 2.95769C0 2.51175 0.0677083 2.1088 0.203125 1.74882C0.338542 1.38348 0.526042 1.07186 0.765625 0.813969C1.01042 0.556078 1.29688 0.357286 1.625 0.217595C1.95833 0.0725318 2.32292 0 2.71875 0C3.11458 0 3.47917 0.0725318 3.8125 0.217595C4.15104 0.357286 4.4401 0.556078 4.67969 0.813969C4.92448 1.07186 5.11458 1.38348 5.25 1.74882C5.38542 2.1088 5.45312 2.51175 5.45312 2.95769ZM3.59375 2.95769C3.59375 2.68368 3.57031 2.45803 3.52344 2.28073C3.48177 2.09805 3.42187 1.95299 3.34375 1.84553C3.26562 1.73808 3.17187 1.66286 3.0625 1.61988C2.95833 1.5769 2.84375 1.55541 2.71875 1.55541C2.59375 1.55541 2.47917 1.5769 2.375 1.61988C2.27083 1.66286 2.18229 1.73808 2.10938 1.84553C2.03646 1.95299 1.97917 2.09805 1.9375 2.28073C1.89583 2.45803 1.875 2.68368 1.875 2.95769C1.875 3.21558 1.89583 3.43049 1.9375 3.60242C1.97917 3.77435 2.03646 3.91135 2.10938 4.01343C2.18229 4.11551 2.27083 4.18805 2.375 4.23103C2.47917 4.27401 2.59375 4.2955 2.71875 4.2955C2.84375 4.2955 2.95833 4.27401 3.0625 4.23103C3.17187 4.18805 3.26562 4.11551 3.34375 4.01343C3.42187 3.91135 3.48177 3.77435 3.52344 3.60242C3.57031 3.43049 3.59375 3.21558 3.59375 2.95769ZM9.03125 0.483546C9.10938 0.39221 9.20573 0.308932 9.32031 0.233714C9.4349 0.153123 9.59375 0.112828 9.79687 0.112828H11.5625L2.98437 11.5003C2.90625 11.6024 2.80729 11.6884 2.6875 11.7582C2.57292 11.8227 2.43229 11.8549 2.26562 11.8549H0.453125L9.03125 0.483546ZM12 9.09872C12 9.52854 11.9245 9.92344 11.7734 10.2834C11.6224 10.638 11.4219 10.9443 11.1719 11.2021C10.9219 11.4547 10.6302 11.6508 10.2969 11.7905C9.96875 11.9302 9.625 12 9.26562 12C8.86979 12 8.50521 11.9302 8.17188 11.7905C7.84375 11.6508 7.55729 11.4547 7.3125 11.2021C7.07292 10.9443 6.88542 10.638 6.75 10.2834C6.61458 9.92344 6.54687 9.52854 6.54687 9.09872C6.54687 8.65279 6.61458 8.24983 6.75 7.88986C6.88542 7.52451 7.07292 7.21289 7.3125 6.955C7.55729 6.69711 7.84375 6.49832 8.17188 6.35863C8.50521 6.21357 8.86979 6.14103 9.26562 6.14103C9.66146 6.14103 10.026 6.21357 10.3594 6.35863C10.6979 6.49832 10.987 6.69711 11.2266 6.955C11.4714 7.21289 11.6615 7.52451 11.7969 7.88986C11.9323 8.24983 12 8.65279 12 9.09872ZM10.1406 9.09872C10.1406 8.83009 10.1172 8.60712 10.0703 8.42982C10.0286 8.24715 9.96875 8.10208 9.89062 7.99463C9.8125 7.88717 9.71875 7.81195 9.60938 7.76897C9.50521 7.72599 9.39062 7.7045 9.26562 7.7045C9.14062 7.7045 9.02604 7.72599 8.92188 7.76897C8.81771 7.81195 8.72917 7.88717 8.65625 7.99463C8.58333 8.10208 8.52604 8.24715 8.48438 8.42982C8.44271 8.60712 8.42187 8.83009 8.42187 9.09872C8.42187 9.35662 8.44271 9.57152 8.48438 9.74345C8.52604 9.91538 8.58333 10.0524 8.65625 10.1545C8.72917 10.2565 8.81771 10.3291 8.92188 10.3721C9.02604 10.415 9.14062 10.4365 9.26562 10.4365C9.39062 10.4365 9.50521 10.415 9.60938 10.3721C9.71875 10.3291 9.8125 10.2565 9.89062 10.1545C9.96875 10.0524 10.0286 9.91538 10.0703 9.74345C10.1172 9.57152 10.1406 9.35662 10.1406 9.09872Z"/>
</svg>
